<?xml version="1.0" standalone="no"?>
<!DOCTYPE svg PUBLIC "-//W3C//DTD SVG 20010904//EN"
 "http://www.w3.org/TR/2001/REC-SVG-20010904/DTD/svg10.dtd">
<svg version="1.0" xmlns="http://www.w3.org/2000/svg"
 width="400.000000pt" height="320.000000pt" viewBox="0 0 400.000000 320.000000"
 preserveAspectRatio="xMidYMid meet">

<g transform="translate(0.000000,320.000000) scale(0.100000,-0.100000)"
fill="#000000" stroke="none">
<path d="M1830 3067 c-155 -68 -495 -250 -1023 -548 -94 -52 -177 -131 -215
-202 l-27 -52 0 -660 0 -660 29 -49 c62 -106 91 -126 606 -422 373 -214 688
-374 735 -374 47 0 362 160 735 374 515 296 544 316 606 422 l29 49 0 660 0
660 -27 52 c-51 96 -116 147 -380 295 -571 320 -879 478 -950 485 -33 3 -60
-4 -118 -30z m342 -245 c338 -172 864 -467 912 -511 16 -14 37 -44 47 -66 17
-38 19 -77 19 -638 0 -662 2 -636 -65 -695 -87 -77 -1100 -642 -1150 -642 -50
0 -1063 565 -1150 642 -67 59 -65 33 -65 695 0 561 2 600 19 638 10 22 31 52
47 66 81 74 1092 619 1149 619 14 0 121 -49 237 -108z"/>
<path d="M1207 2253 c-4 -3 -7 -295 -7 -648 0 -485 3 -644 12 -653 9 -9 185
-12 730 -12 699 0 718 0 728 19 15 30 14 1273 -2 1289 -9 9 -186 12 -733 12
-397 0 -725 -3 -728 -7z m853 -128 l0 -35 -380 0 -380 0 0 35 0 35 380 0 380
0 0 -35z m510 0 l0 -35 -205 0 -205 0 0 35 0 35 205 0 205 0 0 -35z m5 -605
l0 -480 -637 0 -638 0 0 480 0 480 638 0 637 0 0 -480z"/>
<path d="M1834 1671 c-52 -32 -64 -57 -64 -136 0 -67 2 -73 33 -102 43 -41 69
-53 112 -53 121 0 201 128 144 230 -13 22 -37 50 -55 60 -42 27 -128 27 -170
1z m119 -62 c31 -16 37 -28 37 -71 0 -75 -85 -108 -130 -51 -54 69 18 161 93
122z"/>
<path d="M1450 1540 c0 -157 2 -160 77 -160 66 1 114 17 149 51 69 67 68 157
-1 218 -35 30 -39 31 -130 31 l-95 0 0 -140z m173 49 c17 -21 23 -75 9 -95
-12 -19 -49 -34 -81 -34 l-31 0 0 81 0 82 43 -7 c24 -4 49 -15 60 -27z"/>
<path d="M2124 1667 c-2 -7 -3 -71 -2 -141 3 -108 6 -131 20 -140 13 -8 22 -6
37 8 16 15 21 31 21 72 l0 54 35 -38 35 -37 35 39 35 39 0 -55 c0 -43 5 -59
21 -74 15 -14 24 -16 37 -7 15 9 17 29 17 149 l0 139 -35 3 c-33 2 -37 -1 -73
-60 l-38 -62 -26 45 c-14 24 -33 52 -41 62 -18 20 -70 23 -78 4z"/>
</g>
</svg>
